PathFileType	4	(X/Y/Z)	Walk1_0-155.trc
DataRate	CameraRate	NumFrames	NumMarkers	Units	OrigDataRate	OrigDataStartFrame	OrigNumFrames
30	30	7	22	m	30	38	155
Frame#	Time	Hip			RHip			RKnee			RAnkle			RBigToe			RSmallToe			RHeel			LHip			LKnee			LAnkle			LBigToe			LSmallToe			LHeel			Neck			Head			Nose			RShoulder			RElbow			RWrist			LShoulder			LElbow			LWrist		
		X1	Y1	Z1	X2	Y2	Z2	X3	Y3	Z3	X4	Y4	Z4	X5	Y5	Z5	X6	Y6	Z6	X7	Y7	Z7	X8	Y8	Z8	X9	Y9	Z9	X10	Y10	Z10	X11	Y11	Z11	X12	Y12	Z12	X13	Y13	Z13	X14	Y14	Z14	X15	Y15	Z15	X16	Y16	Z16	X17	Y17	Z17	X18	Y18	Z18	X19	Y19	Z19	X20	Y20	Z20	X21	Y21	Z21	X22	Y22	Z22
39	1.3	-2.1199297987963157	0.8417834628232013	0.3719786269807616	-2.076079684815311	0.8280477604497481	0.4657265176205211	-1.9800966933654895	0.48566196946481727	0.4480953437294676	-2.018174175674095	0.09689887567027668	0.43706009006756114	-1.8154617662920227	0.011402180716316752	0.4256143461830629	-1.8585898526024667	0.0028078496176122754	0.5062081992704665	-2.0968349854696666	0.009209299560346025	0.4257098191892724	-2.1389142926712412	0.8242502805574838	0.2779473582143425	-2.075915670898495	0.45661715939294395	0.2784735561366487	-2.4144475022427736	0.17983509188707836	0.2848592915415643	-2.335350092015992	-0.01293411099633213	0.2881469346570557	-2.382076343362925	0.012052598021817067	0.2393780042535242	-2.4854338789488764	0.16696054681731	0.28906809620302126	-2.124680678777043	1.5201125925075663	0.3358236348596705	-2.050266755453788	1.7809512725967658	0.3581508275660228	-1.977585438072543	1.6491755826095198	0.3458845916949969	-2.143607197517353	1.4060246861313417	0.5298013692968743	-2.097777311930759	1.084181479975995	0.6231429701982731	-2.110250330138211	0.8425251961444469	0.6420933255123169	-2.178486401791022	1.4271085508186672	0.13667212891538616	-2.134708851391449	1.0937256978612306	0.12921340119886254	-2.0787258832280813	0.8392027600040246	0.12821230336475004
40	1.3333333333333333	-2.0935441946379916	0.8467716429343496	0.3736233598176852	-2.0561896912417517	0.8302534239424431	0.4682036605104561	-1.9747774330190828	0.4782852969146733	0.45638186448992973	-2.018808690948512	0.09658543446476234	0.43819615975178705	-1.8202104799768	0.008954847455666472	0.4285266277904681	-1.8560843642115583	0.0021398864712717357	0.5082199269292633	-2.094127553119824	0.011400122997273665	0.425740748914385	-2.1062613706370636	0.8297670416199715	0.27934883953139905	-2.0084494094021808	0.4679835378356393	0.28108383993955954	-2.3505821599298087	0.1959331412827649	0.29383282816929496	-2.281317796067393	-0.005290846052041959	0.28990379383416426	-2.3259195304126608	0.02251280557556827	0.24141094897429502	-2.4247886320788865	0.187217768902786	0.2945612148075312	-2.098499766187148	1.5265398484903128	0.34215069537502196	-2.0235718473015214	1.784337259564737	0.36940499434519203	-1.9511299070397423	1.654692264456216	0.35141445852794584	-2.115634059012561	1.4123351474729684	0.5345533582773253	-2.0643523110309148	1.089477494286225	0.6282073590488912	-2.05324631823586	0.8486208053921878	0.6460113689790173	-2.1544477663184236	1.43421259005793	0.14231470132203392	-2.116096228617389	1.1027100515462893	0.1293236008099499	-2.0574417774377904	0.848090661687899	0.12843913529025985
41	1.3666666666666667	-2.067979647243019	0.8519137377465364	0.3750475656823573	-2.0375822058238082	0.8321782542511441	0.4699878499524652	-1.9732233469208231	0.4721616214858113	0.4629644203480967	-2.0197358008305644	0.09708150534147335	0.43936998987691533	-1.823660614434466	0.007440446014710188	0.4328615999127073	-1.8557946564090237	0.0014470522495228268	0.5101785307264239	-2.0891443795309326	0.015161039392854406	0.42662801830793423	-2.0738824618635547	0.8354361555956915	0.27950470072441297	-1.9411238877392036	0.4831874440001481	0.2836348479729343	-2.277572884828436	0.2060591260169848	0.3015529977218872	-2.2055167547279853	0.003437176818989365	0.2930200654591702	-2.2508737855356964	0.03189975558339861	0.2437612635276472	-2.354598376636965	0.19511208457438534	0.3011308685587564	-2.0714740949005623	1.533164893638681	0.3478016389009646	-1.9983988789035454	1.7871245862921907	0.37868502816447414	-1.9240266194226618	1.6596523153521363	0.35619517737428485	-2.0878892403381153	1.418570366024351	0.5393667370115928	-2.031963232442872	1.0952794591198431	0.6312652521260319	-1.9944847213000552	0.8559374197383129	0.6488154765784834	-2.130136910700824	1.4405976908986833	0.14739630755615177	-2.0996559618964223	1.1119914244953797	0.12642916995399037	-2.0358511415291085	0.8568085614529435	0.12805273826100746
42	1.4	-2.0423261756679723	0.8569250368049363	0.37691519532647905	-2.018811449182955	0.834006990500638	0.4715570736425608	-1.9746239884331644	0.46823229166574226	0.4665041282209749	-2.0201961421957657	0.09807244495643841	0.44052474745919273	-1.8265062948981134	0.006256730146749089	0.4372044229065601	-1.8586101721903097	0.0004120931224818918	0.5116853629631722	-2.082616767134866	0.01956902246808916	0.4287159651296633	-2.041256504059602	0.8410780952971124	0.27909110536517096	-1.8768232779310665	0.5005735045772128	0.2860569668696714	-2.19607287377749	0.2087159544049974	0.30710143360351033	-2.10983946478508	0.012331040242667558	0.29667993008808596	-2.157754224651297	0.03893585162989229	0.24568858587910297	-2.274211413060457	0.1896052124659046	0.3078510803776471	-2.0436747130239596	1.5391715673688091	0.35257524130797097	-1.9737657410109553	1.7896490497833872	0.38498313952022784	-1.8962875342439274	1.6634126924546917	0.36015310694185004	-2.0602759648551547	1.4244253291641713	0.5440539513001118	-1.9987998528870186	1.1015186559525265	0.6330805812750704	-1.9350737570415901	0.8647961398566649	0.6507424257394628	-2.105307072776924	1.4454042346277252	0.1517532270874365	-2.0840860495640015	1.1203651491812778	0.12180114572743272	-2.014064172791581	0.8640985578076279	0.1278374222187405
43	1.4333333333333331	-2.0161767336195475	0.8614655080808132	0.3795380020304171	-1.9992886170598965	0.8358079731872367	0.4731843536214956	-1.9774540616752947	0.4666854087244614	0.46687034641057334	-2.0201376834632576	0.09863021980030008	0.44104162386832474	-1.8297124830522251	0.004958946153717304	0.44017237135982706	-1.8640587246697014	-0.0010402885747937672	0.5118909807084566	-2.0763127828584493	0.02285091876483581	0.4316713226518518	-2.0081132599043525	0.8462926343113291	0.27876877432433644	-1.818299259315976	0.5176621883563994	0.2880967761677828	-2.1070875687868944	0.20377432176629348	0.31053715423170675	-1.9987072253548517	0.020588983798113466	0.30001505176932314	-2.0494293876038507	0.04292777773322245	0.24664500564935682	-2.183782242447221	0.17204929131298913	0.3141817917177805	-2.0152414360162414	1.5438567429765744	0.3564540283026658	-1.9488977316698002	1.7918586261587084	0.3881478084956575	-1.868070020109117	1.6655027396521809	0.3630583743179787	-2.032423506172108	1.4295464547117265	0.5483930280620278	-1.9638040809757418	1.107954838138081	0.6343107186283568	-1.8759568275581695	0.875034460589031	0.6518194478798772	-2.0796589139420605	1.448245043445628	0.15531140106168842	-2.067487193484917	1.1267207916528648	0.11736320098572225	-1.992107243256823	0.8693845825385581	0.127955578303525
44	1.4666666666666666	-1.989405225425521	0.8650457220036822	0.3828839609299544	-1.9788245389080885	0.8373142046236306	0.475020413019354	-1.9799281496456993	0.46684412894156224	0.46510143060649767	-2.0199603409625526	0.09769423873186937	0.44016793357478656	-1.8340407812101975	0.003211420004813887	0.44083339501422997	-1.8709757493392523	-0.002977559558815795	0.5096184371507629	-2.07217367469589	0.023103763503091387	0.43448777527194277	-1.9745022438562905	0.8503766665159075	0.27901519807767694	-1.767574609220165	0.5318848055801975	0.28942182487795026	-2.0119059395003474	0.1929862798504837	0.3121635950974676	-1.8773870857589894	0.02848293375458772	0.3018320640752749	-1.9297660129077758	0.044704522983581844	0.24599622348429045	-2.084379112069776	0.14632379153290775	0.3194177244340549	-1.986280029728382	1.5468543086931246	0.35959627464567284	-1.9235106925001173	1.79342416156217	0.38858342552470526	-1.8394586081760251	1.6659114846031173	0.3646838484528018	-2.0039303757910343	1.4335419201683515	0.5520811221871794	-1.9271824186002902	1.1140004768497607	0.6352075210952485	-1.81779295007327	0.8858489652904823	0.6518428788295705	-2.0528207412481154	1.4491824391232386	0.1582035128844587	-2.0484221026024194	1.130477111812385	0.11445239284828367	-1.9695171780699263	0.8724793750202103	0.128155641691733
45	1.5	-1.9619466762101923	0.8670882673306445	0.3866453539575669	-1.9571968720809796	0.8380350349891579	0.47715102531354286	-1.980420506923224	0.4674622856481083	0.4626975777320339	-2.0201468008705272	0.09484220208296903	0.43764089411429963	-1.8398373884094945	0.0007964568947868829	0.438712217073268	-1.8787515848712106	-0.005730935856485573	0.504105019698605	-2.0714418520350097	0.019548346306132773	0.43590547325930623	-1.9407021964175706	0.8525618594283896	0.2799347523768546	-1.725392252860143	0.5410834174783427	0.2899220549864395	-1.911772577776202	0.1793749243266205	0.3120133855068008	-1.7507159269193	0.0376388983328054	0.30116712046949273	-1.802928511526946	0.046607080699796306	0.24324797582762125	-1.9777971311577338	0.11777949337558136	0.3225295387054271	-1.956781949610123	1.548110465033455	0.3622270309385926	-1.8974645696416268	1.7940260535033026	0.3869941831408209	-1.810294838433061	1.6650324147274371	0.3650879816195506	-1.9746198178410956	1.4360542063588846	0.5548099118819744	-1.8898567982905208	1.1188831486386417	0.6357471977214851	-1.761023440355974	0.8961349461921357	0.6505210337933366	-2.024435511883817	1.4484402383122237	0.16062175588413205	-2.0262984764504104	1.131627833163729	0.11336008670188379	-1.945253430646157	0.8732239224708025	0.12820638363392178
